<svg width="300" height="300" viewBox="0 0 300 300" fill="none" xmlns="http://www.w3.org/2000/svg">
<path d="M110.129 290.169C119.765 284.653 128.024 276.577 134.022 266.235L150.934 236.784C158.702 223.29 173.156 214.918 188.691 214.918L222.613 214.918C245.917 214.918 267.647 202.409 279.249 182.119C284.952 172.368 288 161.041 288 149.517C288 125.287 274.824 104.11 255.159 92.7832C245.523 87.2674 234.413 84.0171 222.613 84.0171L188.691 84.0171C173.156 84.0171 158.702 75.7434 150.934 62.151L133.924 32.7007C122.321 12.509 100.591 -8.19189e-06 77.2882 -9.2105e-06C65.8824 -9.70907e-06 54.575 3.05336 44.6441 8.76613C23.7008 20.8811 12 42.9442 12 65.5983C12 76.7284 14.8515 87.9569 20.751 98.2005L37.663 127.651C45.4307 141.145 45.4307 157.791 37.663 171.284L20.751 200.735C9.14857 220.926 9.14857 246.043 20.751 266.235C26.4539 276.183 34.7132 284.456 44.6441 290.169C65.5875 302.383 90.5622 301.496 110.129 290.169ZM59.3929 264.659C53.985 261.507 49.3637 256.976 46.3156 251.559C39.9245 240.429 39.9245 226.639 46.3156 215.608L98.9198 124.105C107.966 108.444 107.966 89.0404 98.9198 73.3795L89.8739 57.6201C85.8425 50.5284 76.7966 48.1645 69.7171 52.2029C62.6377 56.2412 60.2779 65.3028 64.3092 72.3945L73.3552 88.1539C77.0916 94.6546 77.0916 102.731 73.3552 109.331C70.6021 114.058 63.8176 114.058 61.1628 109.331L46.2173 83.4261C36.2864 66.2878 42.186 44.2247 59.393 34.2766C64.8009 31.1247 70.9954 29.4503 77.2882 29.4503C90.0705 29.4503 101.968 36.345 108.457 47.4751L161.16 138.879C170.206 154.54 187.02 164.193 205.013 164.193L222.712 164.193C230.676 164.193 237.461 158.086 237.854 150.108C238.247 141.637 231.463 134.644 223.105 134.644L205.013 134.644C197.442 134.644 190.461 130.606 186.725 124.105C183.971 119.377 187.413 113.467 192.821 113.467L222.613 113.467C242.377 113.467 258.502 129.621 258.502 149.418C258.502 155.722 256.831 161.927 253.684 167.345C247.293 178.475 235.396 185.369 222.613 185.369L117.208 185.369C99.1165 185.369 82.4011 195.022 73.3552 210.683L64.3092 226.442C60.2779 233.534 62.6377 242.497 69.7171 246.634C76.7966 250.672 85.7442 248.308 89.8739 241.217L98.9198 225.457C102.656 218.957 109.637 214.918 117.208 214.918C122.616 214.918 126.058 220.828 123.305 225.556L108.359 251.46C98.5265 268.697 76.5016 274.607 59.3929 264.659Z" fill="#191919"/>
</svg>
